<?xml version="1.0" encoding="UTF-8"?>
<svg id="Laag_1" xmlns="http://www.w3.org/2000/svg" version="1.1" viewBox="0 0 60 15">
  <!-- Generator: Adobe Illustrator 29.5.0, SVG Export Plug-In . SVG Version: 2.1.0 Build 137)  -->
  <defs>
    <style>
      .st0 {
        fill: #fff;
      }

      .st1 {
        fill: #3cd958;
      }
    </style>
  </defs>
  <g>
    <path class="st0" d="M31.27,3.47v4.94c0,.32-.05.61-.15.87-.1.26-.25.48-.45.67-.2.18-.44.33-.72.43-.28.1-.6.15-.96.15s-.65-.05-.91-.14c-.26-.09-.49-.23-.68-.4-.19-.17-.34-.38-.46-.62-.12-.24-.2-.5-.25-.8l1.41-.28c.11.6.4.91.87.91.22,0,.41-.07.56-.21s.23-.36.23-.66v-3.65h0v-1.21h1.51Z"/>
    <path class="st0" d="M32.76,10.42V3.47h3.29c.33,0,.62.05.88.16s.48.26.66.45c.18.19.32.43.42.7.1.28.15.58.15.9s-.05.63-.15.91c-.1.27-.24.5-.42.7-.18.19-.4.34-.66.45s-.55.16-.88.16h-1.77v2.51h-1.51ZM34.28,6.6h1.59c.23,0,.4-.06.53-.17.13-.12.19-.29.19-.51v-.44c0-.23-.06-.4-.19-.51-.13-.12-.31-.17-.53-.17h-1.59v1.81Z"/>
    <path class="st0" d="M39.08,10.53c-.3,0-.52-.07-.66-.22-.14-.15-.21-.34-.21-.57v-.2c0-.23.07-.42.21-.57.14-.15.36-.22.66-.22s.52.07.66.22c.14.15.21.34.21.57v.2c0,.23-.07.42-.21.57-.14.15-.36.22-.66.22Z"/>
    <path class="st0" d="M43.27,10.54c-.39,0-.74-.06-1.05-.19s-.56-.31-.77-.55-.36-.52-.47-.86c-.11-.34-.16-.72-.16-1.13s.05-.79.16-1.13c.11-.33.26-.62.47-.86s.46-.42.77-.55.65-.19,1.05-.19c.53,0,.97.12,1.33.36.35.24.61.57.76,1.01l-1.19.52c-.05-.2-.14-.37-.29-.51-.15-.14-.35-.21-.61-.21-.3,0-.52.1-.68.29-.15.2-.23.46-.23.79v.98c0,.33.08.59.23.79s.38.29.68.29c.27,0,.48-.07.63-.21.16-.14.27-.33.34-.56l1.15.5c-.17.5-.44.86-.8,1.1-.36.23-.8.35-1.32.35Z"/>
    <path class="st0" d="M50.16,10.42c-.27,0-.49-.08-.66-.25-.18-.17-.29-.39-.33-.67h-.06c-.08.34-.26.6-.53.77s-.61.26-1.01.26c-.52,0-.93-.14-1.2-.42-.28-.28-.42-.65-.42-1.1,0-.55.2-.96.6-1.23.4-.27.95-.4,1.64-.4h.83v-.33c0-.25-.07-.45-.2-.6-.13-.15-.36-.22-.67-.22-.29,0-.52.06-.7.19-.17.13-.32.27-.43.43l-.88-.78c.21-.31.48-.56.8-.74.32-.18.76-.27,1.31-.27.74,0,1.3.16,1.67.49s.56.8.56,1.42v2.29h.49v1.14h-.82ZM48.12,9.52c.25,0,.46-.05.63-.16.18-.11.26-.28.26-.51v-.61h-.72c-.58,0-.87.19-.87.58v.15c0,.19.06.33.18.42.12.09.29.13.51.13Z"/>
    <path class="st0" d="M51.97,10.42v-5.23h1.47v1.13h.05c.03-.15.07-.29.14-.42.07-.14.15-.26.26-.36.11-.11.24-.19.39-.25s.33-.09.54-.09h.26v1.37h-.37c-.43,0-.75.06-.96.17-.21.11-.31.32-.31.63v3.06h-1.47Z"/>
    <path class="st0" d="M57.76,10.54c-.5,0-.93-.08-1.27-.24-.34-.16-.65-.39-.93-.69l.87-.88c.19.21.39.37.62.49.23.12.48.18.77.18s.49-.04.61-.13.17-.21.17-.36c0-.25-.18-.39-.53-.44l-.57-.07c-1.17-.15-1.76-.68-1.76-1.61,0-.25.05-.48.14-.69s.23-.39.41-.54.39-.27.64-.35.53-.12.84-.12c.27,0,.51.02.72.05.21.04.39.09.56.16.16.07.31.16.45.26.14.1.27.22.4.34l-.85.87c-.17-.17-.35-.3-.56-.39-.21-.1-.42-.14-.64-.14-.25,0-.43.04-.54.12-.11.08-.16.19-.16.32,0,.14.04.25.11.32.08.08.22.13.43.16l.59.08c1.15.15,1.72.68,1.72,1.57,0,.25-.05.48-.16.7s-.26.4-.45.55c-.2.16-.43.28-.71.36s-.58.13-.92.13Z"/>
  </g>
  <path class="st1" d="M15.45,0s-4.35,7.37-5.95,10.4c-1.07,2.01-3.05,4.03-5.88,3.99-1.23-.02-2.77-.54-3.62-1.29l1.58-2.79c.99.85,3.43.95,4.32-.42s4.02-6.81,4.02-6.81h-4.16L7.56.09c-.09,0,7.89-.09,7.89-.09ZM18.51,5.85l-2.19,3.29h-3.65l-1.59,2.8h7.02l4.17-5.98L17.85.41l-1.76,2.91,2.41,2.52Z"/>
</svg>